<svg width="25" height="24" viewBox="0 0 25 24" fill="none" xmlns="http://www.w3.org/2000/svg">
<g clip-path="url(#clip0_7_658)">
<path d="M18.1372 5.99899H17.1372V4.99899C17.1372 4.44799 16.6902 3.99899 16.1372 3.99899H4.13721C3.58421 3.99899 3.13721 4.44799 3.13721 4.99899V12.999C3.13721 14.488 3.60721 15.865 4.40221 16.999H15.8592C16.4722 16.122 16.8982 15.105 17.0572 13.999H18.1372C20.3422 13.999 22.1372 12.205 22.1372 9.99899C22.1372 7.79399 20.3422 5.99899 18.1372 5.99899ZM18.1372 12H17.1372V7.99999H18.1372C19.2412 7.99999 20.1372 8.89699 20.1372 9.99999C20.1372 11.102 19.2412 12 18.1372 12Z" fill="black"/>
<path d="M18.1372 18H2.13721V20H18.1372V18Z" fill="black"/>
</g>
<defs>
<clipPath id="clip0_7_658">
<rect width="24" height="24" fill="white" transform="translate(0.137207)"/>
</clipPath>
</defs>
</svg>
