<svg width="25" height="24" viewBox="0 0 25 24" fill="none" xmlns="http://www.w3.org/2000/svg">
<g clip-path="url(#clip0_7_671)">
<path d="M7.57736 6.293C5.89236 4.609 7.28535 3.007 7.58235 2.703C6.70735 1.839 7.05236 2.182 6.16336 1.293C4.87436 2.582 3.81136 5.354 6.16336 7.706L7.57736 6.293Z" fill="black"/>
<path d="M9.27407 5.293L10.6881 6.706C12.6741 4.72 11.7771 2.38 10.6881 1.293L9.26807 2.701C9.56807 3.011 10.4531 4.113 9.27407 5.293Z" fill="black"/>
<path d="M21.8691 12H3.86914C3.31614 12 2.86914 12.448 2.86914 13C2.86914 18.515 7.35514 23 12.8691 23C18.3831 23 22.8691 18.515 22.8691 13C22.8691 12.448 22.4221 12 21.8691 12Z" fill="black"/>
<path d="M19.8702 3C18.2632 2.196 14.7192 8.496 13.3892 11H18.3432C19.3352 8.83 21.4342 3.783 19.8702 3Z" fill="black"/>
</g>
<defs>
<clipPath id="clip0_7_671">
<rect width="24" height="24" fill="white" transform="translate(0.869141)"/>
</clipPath>
</defs>
</svg>
