<svg width="25" height="24" viewBox="0 0 25 24" fill="none" xmlns="http://www.w3.org/2000/svg">
<g clip-path="url(#clip0_7_685)">
<path d="M16.6465 6H8.64648C3.90048 6 2.64648 11.233 2.64648 14C2.64648 14.404 2.89048 14.768 3.26248 14.922C3.91748 15.196 4.19148 14.831 4.64648 14.442V15C4.64648 16.654 5.99248 18 7.64648 18H17.6465C19.3005 18 20.6465 16.654 20.6465 15V14.442C21.0915 14.823 21.3825 15.192 22.0305 14.922C22.4025 14.768 22.6465 14.404 22.6465 14C22.6465 11.233 21.3925 6 16.6465 6ZM20.3775 11.81C19.5905 11.368 18.6385 11 17.6465 11H17.1245L18.1815 8.358C19.4685 9.028 20.0845 10.525 20.3775 11.81ZM10.3245 8H12.1695L10.9695 11H9.12448L10.3245 8ZM14.3245 8H16.1695L14.9695 11H13.1245L14.3245 8ZM8.14648 8.057L6.94448 11.061C6.20948 11.182 5.51348 11.473 4.91548 11.81C5.27748 10.224 6.14448 8.336 8.14648 8.057ZM18.6465 15C18.6465 15.551 18.1975 16 17.6465 16H7.64648C7.09548 16 6.64648 15.551 6.64648 15V13.204C6.98048 13.079 7.32148 13 7.64648 13H17.6465C17.9715 13 18.3125 13.079 18.6465 13.204V15Z" fill="black"/>
</g>
<defs>
<clipPath id="clip0_7_685">
<rect width="24" height="24" fill="white" transform="translate(0.646484)"/>
</clipPath>
</defs>
</svg>
