<svg width="22" height="24" viewBox="0 0 22 24" fill="none" xmlns="http://www.w3.org/2000/svg">
<g clip-path="url(#clip0_7_649)">
<path fill-rule="evenodd" clip-rule="evenodd" d="M17.4388 6C16.6722 6 15.9993 5.27925 15.9993 4.5V1.52325V1.52175L19.5981 6H17.4388ZM15.9993 12.012H9.52142C9.12411 12.012 8.80165 11.676 8.80165 11.2627C8.80165 10.8487 9.12411 10.5135 9.52142 10.5135H15.9993C16.3966 10.5135 16.719 10.8487 16.719 11.2627C16.719 11.676 16.3966 12.012 15.9993 12.012ZM15.9993 15.7583H9.52142C9.12411 15.7583 8.80165 15.4223 8.80165 15.009C8.80165 14.595 9.12411 14.2598 9.52142 14.2598H15.9993C16.3966 14.2598 16.719 14.595 16.719 15.009C16.719 15.4223 16.3966 15.7583 15.9993 15.7583ZM14.5597 22.5H3.76332C3.00757 22.5 2.3238 21.7642 2.3238 21V6C2.3238 4.88475 3.20479 4.5 4.48308 4.5V18C4.48308 19.5443 5.83912 21 7.36213 21C7.36213 21 15.1658 20.9917 16.0057 20.9917C16.0057 21.9015 15.4328 22.5 14.5597 22.5ZM15.9993 0.0232487C15.91 0.0232487 7.36213 0 7.36213 0C5.83912 0 4.48308 1.45575 4.48308 3L3.65176 3.02025C2.12875 3.02025 0.884277 4.45575 0.884277 6V21C0.884277 22.5443 2.24031 24 3.76332 24H14.5597C16.0828 24 17.4388 22.5443 17.4388 21H18.1586C19.6816 21 21.0376 19.5443 21.0376 18V6.01725L15.9993 0.0232487Z" fill="#111216"/>
</g>
<defs>
<clipPath id="clip0_7_649">
<rect width="20.1533" height="24" fill="white" transform="translate(0.884277)"/>
</clipPath>
</defs>
</svg>
